<?xml version="1.0" standalone="no"?>
<!DOCTYPE svg PUBLIC "-//W3C//DTD SVG 20010904//EN"
 "http://www.w3.org/TR/2001/REC-SVG-20010904/DTD/svg10.dtd">
<svg version="1.0" xmlns="http://www.w3.org/2000/svg"
 width="735.000000pt" height="452.000000pt" viewBox="0 0 735.000000 452.000000"
 preserveAspectRatio="xMidYMid meet">

<g transform="translate(0.000000,452.000000) scale(0.100000,-0.100000)"
fill="#0c71c2" stroke="none">
<path d="M1463 2399 c-136 -26 -223 -130 -223 -265 0 -122 44 -206 136 -260
91 -53 225 -40 278 28 l23 31 15 -44 15 -44 76 -3 c86 -3 85 -4 63 68 -7 25
-17 97 -21 160 -8 136 -30 201 -82 252 -67 65 -181 97 -280 77z m147 -167 c36
-27 50 -60 50 -120 0 -48 -4 -58 -35 -89 -34 -34 -37 -35 -100 -31 -91 6 -117
32 -123 121 -4 57 -1 66 23 95 45 53 130 64 185 24z"/>
<path d="M2131 2394 c-85 -22 -143 -75 -169 -153 -8 -21 -12 -105 -12 -218 l0
-184 78 3 77 3 5 181 c4 130 9 186 18 197 23 28 77 40 117 27 58 -19 65 -45
65 -240 l0 -170 79 0 80 0 3 174 c3 159 5 177 24 203 45 59 150 48 173 -19 6
-17 11 -104 11 -194 l0 -164 81 0 81 0 -4 193 c-3 173 -6 196 -25 232 -48 91
-127 139 -229 138 -72 -1 -124 -22 -162 -69 l-28 -34 -33 36 c-61 64 -135 83
-230 58z"/>
<path d="M3865 2399 c-67 -8 -125 -39 -167 -89 -56 -65 -68 -118 -68 -306 l0
-164 79 0 80 0 3 169 c3 192 11 213 83 240 32 13 43 13 78 0 74 -26 82 -46 85
-240 l4 -170 76 3 77 3 0 175 c0 161 -2 179 -23 225 -54 118 -163 172 -307
154z"/>
<path d="M4555 2400 c-107 -11 -201 -87 -230 -184 -12 -38 -15 -111 -15 -323
l0 -273 80 0 80 0 0 140 c0 77 4 140 8 140 5 0 17 -8 26 -19 24 -27 98 -45
156 -38 180 21 289 223 215 400 -46 111 -171 173 -320 157z m127 -161 c78 -42
75 -191 -6 -234 -50 -27 -142 -17 -172 19 -61 71 -33 201 49 225 35 11 99 6
129 -10z"/>
<path d="M5789 2400 c-139 -24 -209 -124 -161 -232 26 -60 64 -81 196 -112
110 -25 134 -36 122 -55 -9 -13 -243 -15 -298 -2 l-38 9 0 -73 c0 -87 -7 -83
161 -92 101 -5 125 -3 187 16 107 32 156 101 138 196 -14 71 -91 115 -258 146
-73 14 -94 34 -52 49 42 16 190 7 267 -16 15 -5 17 3 17 69 0 56 -4 76 -14 80
-13 5 -59 11 -181 21 -22 2 -61 0 -86 -4z"/>
<path d="M2943 2228 c5 -199 13 -230 74 -299 110 -121 334 -117 429 9 54 70
64 117 64 297 l0 165 -80 0 -80 0 0 -157 c0 -173 -11 -216 -60 -240 -34 -17
-95 -16 -129 1 -47 25 -55 56 -59 234 l-4 162 -80 0 -80 0 5 -172z"/>
<path d="M5150 2391 c-83 -27 -159 -102 -180 -176 -20 -70 -9 -183 22 -236 34
-58 63 -83 123 -110 143 -63 319 -15 392 108 25 44 28 57 28 143 0 78 -4 102
-22 135 -25 48 -75 96 -123 121 -39 20 -196 30 -240 15z m142 -141 c55 -16 88
-61 88 -120 0 -27 -4 -60 -10 -74 -23 -61 -132 -86 -198 -46 -39 24 -52 54
-52 120 0 58 33 104 83 119 43 12 47 12 89 1z"/>
</g>
</svg>
